<svg width="22" height="22" viewBox="0 0 22 22" fill="none" xmlns="http://www.w3.org/2000/svg">
<g id="Group">
<path id="Vector" d="M4.91683 18.5571H17.0842C17.2314 18.5571 17.3724 18.4987 17.4765 18.3946C17.5803 18.2907 17.6387 18.1495 17.6387 18.0025V11.3477C17.6387 11.2005 17.5803 11.0595 17.4765 10.9554C17.3724 10.8514 17.2314 10.793 17.0842 10.793H4.91683C4.61045 10.793 4.3623 11.0413 4.3623 11.3477V18.0025C4.3623 18.1495 4.42072 18.2907 4.52458 18.3946C4.62864 18.4987 4.76964 18.5571 4.91684 18.5571L4.91683 18.5571ZM13.6345 11.9022H16.5294V14.1206H13.6345V11.9022ZM13.6345 15.2296H16.5294V17.4479H13.6345V15.2296ZM9.4752 11.9022H12.5254V14.1206H9.4752V11.9022ZM9.4752 15.2296H12.5254V17.4479H9.4752V15.2296ZM5.47125 11.9022H8.36615V14.1206H5.47125V11.9022ZM5.47125 15.2296H8.36615V17.4479H5.47125V15.2296Z" fill="#D58A5C"/>
<path id="Vector_2" d="M22 5.34493C22 4.60953 21.7079 3.90433 21.1878 3.38423C20.6677 2.86432 19.9625 2.57208 19.2271 2.57208H17.9545V1.03597C17.9545 0.729784 17.7061 0.481445 17.3997 0.481445C17.0936 0.481445 16.8452 0.729794 16.8452 1.03597V2.57208H11.5545V1.03597C11.5545 0.729784 11.3064 0.481445 11 0.481445C10.6936 0.481445 10.4455 0.729794 10.4455 1.03597V2.57208H5.15478V1.03597C5.15478 0.729784 4.90643 0.481445 4.60026 0.481445C4.29388 0.481445 4.04554 0.729794 4.04554 1.03597V2.57208H2.77285C2.03745 2.57208 1.33226 2.86433 0.812148 3.38423C0.292041 3.90433 0 4.60953 0 5.34493V18.8873C0 19.6227 0.29206 20.3281 0.812148 20.848C1.33226 21.3681 2.03745 21.6602 2.77285 21.6602H19.2268C19.9622 21.6602 20.6673 21.3681 21.1875 20.848C21.7076 20.3281 21.9996 19.6227 21.9996 18.8873L22 5.34493ZM20.891 18.8903V18.8905C20.891 19.3317 20.7155 19.7549 20.4035 20.0669C20.0916 20.3789 19.6683 20.5541 19.2272 20.5541H2.77326C2.33207 20.5541 1.90887 20.3789 1.59687 20.0669C1.28489 19.7549 1.10946 19.3317 1.10946 18.8905V8.70027H20.8913L20.891 18.8903ZM20.891 7.59391L1.10914 7.5941V5.34794C1.10914 4.90675 1.28457 4.48356 1.59656 4.17156C1.90854 3.85958 2.33176 3.68434 2.77294 3.68434H4.04563V5.22045C4.04563 5.52683 4.29398 5.77497 4.60035 5.77497C4.90653 5.77497 5.15487 5.52682 5.15487 5.22045V3.68162H10.4456V5.21773C10.4456 5.52391 10.6937 5.77225 11.0001 5.77225C11.3065 5.77225 11.5546 5.5239 11.5546 5.21773V3.68162H16.8453V5.21773C16.8453 5.52391 17.0937 5.77225 17.3998 5.77225C17.7062 5.77225 17.9545 5.5239 17.9545 5.21773V3.68162H19.2272C19.6684 3.68162 20.0916 3.85686 20.4036 4.16884C20.7156 4.48082 20.891 4.90404 20.891 5.34522L20.891 7.59391Z" fill="#D58A5C"/>
</g>
</svg>
