<svg width="23" height="32" viewBox="0 0 23 32" fill="none" xmlns="http://www.w3.org/2000/svg">
<g id="Group">
<path id="Vector" d="M11.3625 31.815C11.0511 31.815 10.7533 31.6874 10.5387 31.4617C10.1126 31.0083 0 20.2651 0 11.3626C0.0397244 8.36153 1.24965 5.49444 3.37193 3.37193C5.49416 1.2497 8.36142 0.0397687 11.3626 0C14.3636 0.0397244 17.2307 1.24965 19.3533 3.37193C21.4755 5.49416 22.6854 8.36142 22.7252 11.3626C22.7252 20.2651 12.6126 31.0083 12.1865 31.4617C11.9719 31.6874 11.6741 31.815 11.3627 31.815H11.3625ZM11.3625 2.27254C8.96147 2.30428 6.6679 3.27233 4.96995 4.96999C3.27222 6.66794 2.3042 8.96152 2.2725 11.3625C2.2725 17.9823 8.98204 26.2542 11.3625 28.98C13.7417 26.253 20.4525 17.9732 20.4525 11.3682C20.4221 8.96612 19.4549 6.67118 17.757 4.9717C16.0588 3.27267 13.7644 2.30396 11.3628 2.2722L11.3625 2.27254Z" fill="#D48A5C"/>
<path id="Vector_2" d="M11.3625 15.9074C10.157 15.9074 9.00103 15.4285 8.14862 14.5762C7.29643 13.7238 6.8175 12.5678 6.8175 11.3624C6.8175 10.1569 7.29642 9.00091 8.14862 8.1485C9.00103 7.29631 10.157 6.81738 11.3625 6.81738C12.5679 6.81738 13.724 7.29629 14.5764 8.1485C15.4286 9.00091 15.9075 10.1569 15.9075 11.3624C15.9075 12.5678 15.4286 13.7238 14.5764 14.5762C13.724 15.4284 12.5679 15.9074 11.3625 15.9074ZM11.3625 9.08988C10.7598 9.08988 10.1819 9.32933 9.75556 9.75543C9.32946 10.1817 9.09 10.7597 9.09 11.3624C9.09 11.9651 9.32945 12.543 9.75556 12.9693C10.1819 13.3954 10.7598 13.6349 11.3625 13.6349C11.9652 13.6349 12.5431 13.3954 12.9694 12.9693C13.3955 12.543 13.635 11.9651 13.635 11.3624C13.635 10.7597 13.3955 10.1818 12.9694 9.75543C12.5431 9.32934 11.9652 9.08988 11.3625 9.08988Z" fill="#D48A5C"/>
</g>
</svg>
