<svg width="17" height="16" viewBox="0 0 17 16" fill="none" xmlns="http://www.w3.org/2000/svg">
<g id="Group">
<path id="Vector" d="M13.8156 15.0629C13.8833 15.0575 13.9452 15.0237 13.9859 14.9701C14.0265 14.9166 14.0421 14.8484 14.0285 14.7827L12.942 9.56824L16.922 5.9817H16.9219C16.9912 5.91995 17.0173 5.8237 16.9884 5.736C16.9596 5.64829 16.8815 5.58539 16.7885 5.57537L11.4327 4.98131L9.20874 0.136812L9.2089 0.136976C9.1703 0.0535408 9.08605 0 8.99325 0C8.90046 0 8.8162 0.0535408 8.77761 0.136976L6.5536 4.98147L1.19783 5.57553V5.57537C1.10504 5.58539 1.02686 5.64829 0.998115 5.736C0.969373 5.8237 0.995323 5.91995 1.06463 5.9817L5.04467 9.56824L3.95821 14.7827H3.95805C3.93867 14.8729 3.97463 14.966 4.04986 15.0204C4.12525 15.0749 4.22592 15.0805 4.30706 15.035L8.99346 12.4039L13.6799 15.035C13.7214 15.0575 13.7689 15.0674 13.816 15.0629H13.8156ZM13.4582 14.3708L9.10944 11.9304C9.03734 11.8901 8.94898 11.8901 8.87687 11.9304L4.5281 14.3708L5.53522 9.53473H5.53505C5.55213 9.45326 5.52405 9.36901 5.46131 9.31349L1.76785 5.98188L6.73806 5.43268C6.82084 5.42414 6.89311 5.37306 6.92809 5.29817L8.99325 0.79803L11.0584 5.29817C11.0934 5.37306 11.1656 5.42398 11.2484 5.43268L16.2186 5.98188L12.5252 9.31349C12.4624 9.36901 12.4344 9.45326 12.4514 9.53473L13.4586 14.3708H13.4582Z" fill="#EAB665"/>
</g>
</svg>
