<svg width="29" height="35" viewBox="0 0 29 35" fill="none" xmlns="http://www.w3.org/2000/svg">
<g id="Group">
<path id="Vector" d="M14.5 0C6.65981 0 0.318237 6.34664 0.318237 14.1936C0.318237 20.7202 4.70287 26.201 10.6875 27.8655C10.8051 27.8999 10.9051 27.9779 10.9666 28.0839L14.5 34.1912L18.0334 28.0839C18.0949 27.9779 18.1949 27.8999 18.3125 27.8655C24.2954 26.1994 28.6818 20.7183 28.6818 14.1936C28.6818 6.34574 22.3403 0 14.5 0H14.5ZM14.5 4.2134C20.0306 4.2134 24.5293 8.70731 24.5293 14.2427C24.5293 19.778 20.0308 24.2719 14.5 24.2719C8.96928 24.2719 4.47079 19.778 4.47079 14.2427C4.47079 8.70731 8.96928 4.2134 14.5 4.2134ZM11.8895 6.99384C11.6998 7.01823 11.5494 7.1654 11.5212 7.35457C11.493 7.54375 11.5938 7.72859 11.7681 7.80718C12.108 7.97413 12.2988 8.1438 12.3996 8.26847C12.5004 8.39341 12.5224 8.46415 12.521 8.57202C12.5172 8.78776 12.3318 9.16177 12.0717 9.5678C11.8115 9.97382 11.4854 10.4126 11.4646 10.9885C11.454 11.2764 11.5413 11.5859 11.7437 11.8507C11.9462 12.1155 12.2381 12.3494 12.6421 12.5548H12.6424C12.7438 12.6063 12.8614 12.6155 12.9695 12.5803C13.078 12.545 13.1677 12.4681 13.2192 12.3667C13.2707 12.2653 13.2799 12.1474 13.2444 12.0393C13.2091 11.9312 13.1322 11.8414 13.0308 11.7899C12.7012 11.6222 12.518 11.4642 12.4237 11.3406C12.3291 11.217 12.3104 11.1357 12.3145 11.0248C12.3226 10.8031 12.527 10.437 12.788 10.0291C13.0492 9.62144 13.3755 9.16288 13.3829 8.58423C13.3867 8.29478 13.2774 7.98283 13.0671 7.72209C12.8571 7.46136 12.5568 7.24481 12.1443 7.04208L12.1445 7.04235C12.0808 7.00902 12.0098 6.99248 11.938 6.99384C11.9217 6.99275 11.9058 6.99275 11.8895 6.99384L11.8895 6.99384ZM14.1965 7.72236C14.0377 7.7435 13.9041 7.85164 13.8504 8.0026C13.7965 8.15356 13.8317 8.32187 13.9415 8.43868C14.2109 8.74169 14.2239 8.88805 14.1965 9.05798C14.1694 9.22791 14.0445 9.45259 13.8808 9.72579C13.7171 9.99898 13.5081 10.3367 13.4921 10.7701C13.4761 11.2034 13.6829 11.6639 14.1355 12.1057H14.1358C14.2128 12.1992 14.326 12.2556 14.4472 12.261C14.5683 12.2661 14.686 12.2195 14.7711 12.1331C14.8559 12.0463 14.8998 11.9279 14.8922 11.8067C14.8846 11.6859 14.8258 11.5737 14.7307 11.4986C14.3851 11.1614 14.3483 10.9603 14.3542 10.7945C14.3605 10.6286 14.4537 10.4346 14.6093 10.1752C14.7646 9.91609 14.9684 9.61254 15.0342 9.20384C15.1001 8.79513 14.9716 8.30325 14.5849 7.86822L14.5851 7.86795C14.4971 7.76686 14.3667 7.71292 14.2328 7.7224C14.2206 7.72186 14.2084 7.72186 14.1962 7.7224L14.1965 7.72236ZM8.85404 13.4654C8.65809 13.5063 8.51661 13.6778 8.51417 13.8781C8.51417 13.8781 8.50333 14.6305 8.56269 15.5536C8.62231 16.4767 8.73777 17.5597 9.08468 18.3585C9.49203 19.2965 10.3151 20.154 10.9423 20.7746L10.9425 20.7749C11.0236 20.854 11.1328 20.8977 11.2461 20.8963H15.1437H15.1434C15.2567 20.8977 15.366 20.854 15.447 20.7749C16.0181 20.2104 16.749 19.4525 17.1832 18.6138C17.2211 18.61 17.3943 18.594 17.6444 18.5531C17.9206 18.5081 18.2355 18.4512 18.5066 18.3346C19.1183 18.0712 19.7137 17.6655 20.0728 17.1811C20.2875 16.8919 20.5122 16.5312 20.5948 16.1006C20.6778 15.6699 20.5813 15.1534 20.2062 14.7405C19.9755 14.4869 19.6801 14.4064 19.3807 14.34C19.0809 14.2733 18.7559 14.2432 18.4578 14.2307C18.2307 14.2212 18.0494 14.2272 17.8751 14.2307V13.8787L17.8754 13.8781C17.8675 13.6488 17.68 13.4667 17.4504 13.4654H8.93854C8.91035 13.4626 8.8819 13.4626 8.85371 13.4654L8.85404 13.4654ZM17.8634 15.0801C18.0309 15.0766 18.2089 15.0712 18.422 15.0801C18.6905 15.0915 18.9797 15.1164 19.199 15.1652C19.4185 15.214 19.564 15.3108 19.5754 15.3229C19.7852 15.5536 19.8009 15.7162 19.7576 15.9422C19.7142 16.1683 19.5681 16.4352 19.3933 16.6708C19.1903 16.9442 18.6561 17.3342 18.1669 17.5451C18.0625 17.5901 17.7709 17.6619 17.5235 17.7029C17.7064 17.0207 17.7948 16.2423 17.8392 15.5536C17.8501 15.3839 17.8574 15.2346 17.8633 15.0801H17.8634Z" fill="#E09446"/>
</g>
</svg>
