<svg width="23" height="16" viewBox="0 0 23 16" fill="none" xmlns="http://www.w3.org/2000/svg">
<g id="Group">
<path id="Vector" d="M1.22514 0.318359C0.557172 0.318359 0 0.867503 0 1.53529V14.7752C0 15.4431 0.557172 16.0004 1.22514 16.0004H21.7749C22.4428 16.0004 23 15.4431 23 14.7752V1.53529C23 0.867457 22.4428 0.318359 21.7749 0.318359H1.22514ZM2.00107 1.36372H20.9989L11.5002 8.77198L2.00107 1.36372ZM1.04536 1.93545L8.43728 7.70179L1.04536 14.277V1.93545ZM21.9545 1.93545V14.277L14.5625 7.70179L21.9545 1.93545ZM9.27832 8.3552L11.1815 9.8418C11.3692 9.986 11.6307 9.986 11.8184 9.8418L13.7216 8.3552L21.1457 14.9546H1.85382L9.27832 8.3552Z" fill="#D58A5C"/>
</g>
</svg>
