<svg width="19" height="29" viewBox="0 0 19 29" fill="none" xmlns="http://www.w3.org/2000/svg">
<g id="Group">
<path id="Vector" d="M14.0718 0H4.19157C3.08006 0.000849305 2.01436 0.442699 1.22854 1.22854C0.442726 2.01436 0.000869689 3.08 0 4.19157V24.7255C0.000849305 25.837 0.442699 26.9027 1.22854 27.6885C2.01436 28.4743 3.08 28.9162 4.19157 28.917H14.0718C15.1833 28.9162 16.249 28.4743 17.0348 27.6885C17.8206 26.9027 18.2625 25.837 18.2634 24.7255V4.19157C18.2625 3.08006 17.8207 2.01436 17.0348 1.22854C16.249 0.442726 15.1834 0.000869689 14.0718 0ZM16.7413 24.7258C16.7396 25.4333 16.4579 26.1114 15.9576 26.6117C15.4574 27.1119 14.7792 27.3937 14.0718 27.3954H4.19157C3.48408 27.3937 2.80594 27.1119 2.30571 26.6117C1.80547 26.1114 1.52369 25.4332 1.52201 24.7258V4.1919C1.52371 3.48441 1.80546 2.80627 2.30571 2.30603C2.80595 1.8058 3.48414 1.52402 4.19157 1.52234H14.0718C14.7793 1.52403 15.4574 1.80579 15.9576 2.30603C16.4579 2.80628 16.7397 3.48446 16.7413 4.1919V24.7258Z" fill="#D48A5C"/>
<path id="Vector_2" d="M10.6533 24.3515C10.6533 25.1922 9.97194 25.8735 9.13133 25.8735C8.29072 25.8735 7.60938 25.1922 7.60938 24.3515C7.60938 23.5109 8.29072 22.8296 9.13133 22.8296C9.97194 22.8296 10.6533 23.5109 10.6533 24.3515Z" fill="#D48A5C"/>
</g>
</svg>
