<svg width="17" height="9" viewBox="0 0 17 9" fill="none" xmlns="http://www.w3.org/2000/svg">
<g id="Group">
<path id="Vector" d="M16.9656 4.34586C16.9451 4.29502 16.9148 4.24895 16.8765 4.21023L12.8293 0.0989405C12.6687 -0.0409187 12.4293 -0.0313715 12.2799 0.120414C12.1305 0.272203 12.1211 0.515389 12.2587 0.678562L15.6179 4.09093L0.404717 4.09093C0.181221 4.09093 4.13071e-07 4.27502 3.93223e-07 4.50206C3.73375e-07 4.72909 0.181221 4.91318 0.404717 4.91318L15.6179 4.91319L12.2627 8.32151C12.1252 8.4845 12.1344 8.72768 12.2839 8.87966C12.4335 9.03145 12.6729 9.04081 12.8333 8.90113L16.8805 4.78985C16.9968 4.67257 17.0319 4.49564 16.9695 4.34164L16.9656 4.34586Z" fill="#EAB665"/>
</g>
</svg>
