<svg width="183" height="47" viewBox="0 0 183 47" fill="none" xmlns="http://www.w3.org/2000/svg">
<g id="Group 49">
<path id="Vector" d="M87.2716 14.7393C84.254 14.7393 81.7986 17.1983 81.7986 20.2195V28.0465C81.7986 31.0673 84.2554 33.5252 87.2738 33.5252H95.0937C98.1117 33.5252 100.567 31.0662 100.567 28.045V20.2173C100.567 17.1969 98.1106 14.7393 95.0922 14.7393H87.2716ZM96.8137 17.745C97.2281 17.745 97.5644 18.0817 97.5644 18.4965C97.5644 18.9112 97.2281 19.2479 96.8137 19.2479C96.3993 19.2479 96.0629 18.9112 96.0629 18.4965C96.0629 18.0817 96.3993 17.745 96.8137 17.745ZM91.183 19.2479C93.8745 19.2479 96.0629 21.4383 96.0629 24.1322C96.0629 26.8262 93.8741 29.0166 91.183 29.0166C88.4916 29.0166 86.3031 26.8258 86.3031 24.1322C86.3031 21.4387 88.4916 19.2479 91.183 19.2479ZM91.183 20.7508C89.317 20.7508 87.8046 22.2645 87.8046 24.1322C87.8046 26 89.317 27.5137 91.183 27.5137C93.049 27.5137 94.5614 26 94.5614 24.1322C94.5614 22.2645 93.049 20.7508 91.183 20.7508Z" fill="#F33333"/>
<path id="Vector_2" d="M23.7249 12.8975C17.7453 12.8975 12.8967 17.7755 12.8967 23.7915C12.8967 29.2531 16.8961 33.7632 22.1061 34.551V26.6784H19.427V23.8149H22.1061V21.9093C22.1061 18.7547 23.6337 17.3703 26.24 17.3703C27.4877 17.3703 28.1486 17.4637 28.4606 17.5056V20.005H26.6831C25.577 20.005 25.1905 21.0608 25.1905 22.25V23.8149H28.4327L27.9933 26.6784H25.1905V34.5736C30.4755 33.8529 34.5531 29.3068 34.5531 23.7915C34.5531 17.7755 29.705 12.8975 23.7249 12.8975Z" fill="#00B2FF"/>
<path id="Vector_3" d="M171.346 15.2938C170.465 15.7035 169.519 15.9767 168.52 16.1058C169.535 15.4726 170.316 14.4628 170.683 13.2698C169.733 13.8548 168.681 14.2844 167.561 14.5109C166.667 13.5152 165.391 12.8975 163.978 12.8975C161.264 12.8975 159.064 15.1885 159.064 18.013C159.064 18.4126 159.108 18.8021 159.192 19.1801C155.109 18.9647 151.487 16.9257 149.064 13.831C148.638 14.5871 148.399 15.4726 148.399 16.4071C148.399 18.1831 149.265 19.7463 150.585 20.6675C149.779 20.6415 149.021 20.4063 148.357 20.0287C148.357 20.0441 148.357 20.067 148.357 20.0886C148.357 22.5704 150.051 24.6367 152.297 25.1072C151.886 25.2253 151.453 25.291 151.006 25.291C150.688 25.291 150.379 25.2531 150.08 25.1967C150.705 27.2247 152.519 28.7072 154.669 28.7508C152.987 30.1206 150.869 30.941 148.565 30.941C148.167 30.941 147.779 30.9172 147.394 30.8683C149.57 32.3156 152.154 33.1641 154.927 33.1641C163.965 33.1641 168.909 25.3676 168.909 18.6043C168.909 18.3827 168.902 18.1619 168.892 17.9439C169.857 17.2284 170.689 16.3252 171.346 15.2938Z" fill="#00B2FF"/>
<rect id="Rectangle 62" x="0.5" y="0.5" width="45.0606" height="45.0606" rx="3.5" stroke="#6D6D6D"/>
<rect id="Rectangle 63" x="68.6694" y="0.5" width="45.0606" height="45.0606" rx="3.5" stroke="#6D6D6D"/>
<rect id="Rectangle 64" x="136.84" y="0.5" width="45.0606" height="45.0606" rx="3.5" stroke="#6D6D6D"/>
</g>
</svg>
