<svg width="22" height="20" viewBox="0 0 22 20" fill="none" xmlns="http://www.w3.org/2000/svg">
<path id="Vector" d="M1.29011 13.3558L7.24598 13.9139L9.57775 19.4897C9.6466 19.6466 9.79783 19.7515 9.96897 19.7609C10.1317 19.7616 10.2831 19.6777 10.3691 19.5395L13.2044 16.1524L18.6786 18.3741C18.8065 18.4258 18.951 18.415 19.0698 18.3449C19.1884 18.2746 19.2677 18.1532 19.2841 18.0162L21.2468 1.4853C21.2666 1.31832 21.1901 1.15463 21.0492 1.06275C20.9084 0.970872 20.7277 0.966689 20.583 1.05203L1.10691 12.5344C0.94169 12.6319 0.858178 12.8246 0.89992 13.0117C0.941659 13.1989 1.09917 13.3379 1.29015 13.3559L1.29011 13.3558ZM17.912 4.58042L10.5697 14.4865C10.5313 14.5385 10.5048 14.5979 10.4917 14.6609L9.84081 17.8266L8.07977 13.6155L17.912 4.58042Z" fill="#D58A5C"/>
</svg>
