<svg width="21" height="23" viewBox="0 0 21 23" fill="none" xmlns="http://www.w3.org/2000/svg">
<path id="Vector" d="M1.16682 12.1052H0.000259875L5.64255e-05 10.8948H3.49999V12.1052H2.33343V15.7367H1.16687L1.16682 12.1052ZM6.17757 16.9709H7.34413C7.3598 15.3117 8.22199 13.7853 9.60954 12.9603C10.9971 12.1353 12.7022 12.1353 14.0897 12.9603C15.4773 13.7853 16.3392 15.3117 16.3549 16.9709H17.5217C17.5188 15.7856 17.1711 14.6288 16.524 13.6521C15.8768 12.6754 14.9603 11.9242 13.8946 11.4972C14.5359 10.915 14.92 10.0863 14.9574 9.20303C14.9951 8.32 14.683 7.45935 14.0936 6.8208C13.5042 6.18247 12.689 5.82192 11.8369 5.82273C10.9851 5.82357 10.1705 6.18581 9.5823 6.82567C8.99412 7.46529 8.68386 8.32654 8.72314 9.20957C8.7624 10.0928 9.14794 10.9207 9.79042 11.5014C8.72803 11.9306 7.81512 12.6821 7.17059 13.6578C6.52606 14.6335 6.17997 15.7879 6.17757 16.9709ZM1.16682 9.6841H2.33337V6.05262H3.49993L3.50013 4.84221H0.00020345L0 6.05262H1.16656L1.16682 9.6841ZM1.16682 0V3.63148H2.33337V1.21062H19.8333V21.7893H2.33337V18.1578H3.49993L3.50013 16.9474H0.00020345V18.1578H1.16676V23H21V0.000270467L1.16682 0Z" fill="#D58A5C"/>
</svg>
