<svg width="51" height="51" viewBox="0 0 51 51" fill="none" xmlns="http://www.w3.org/2000/svg">
<g id="Group">
<g id="Group 111">
<circle id="Ellipse 13" cx="25.5" cy="25.5" r="25.5" fill="white"/>
<path id="Vector" d="M49.8668 25.4C49.8668 38.7834 38.9362 49.6711 25.5001 49.6711C12.064 49.6711 1.13343 38.7834 1.13343 25.4C1.13343 12.0166 12.064 1.12889 25.5001 1.12889C38.9362 1.12889 49.8668 12.0166 49.8668 25.4ZM51 25.4C51 11.43 39.525 -5.01588e-07 25.5 -1.11464e-06C11.475 -1.72769e-06 -4.99621e-07 11.43 -1.11027e-06 25.4C-1.72092e-06 39.37 11.475 50.8 25.5 50.8C39.525 50.8 51 39.37 51 25.4Z" fill="#EAB665"/>
</g>
<path id="Vector_2" d="M25.4999 14.1113C25.8114 14.1113 26.0668 14.3653 26.0668 14.6759L26.0668 36.1248C26.0668 36.4351 25.8118 36.6894 25.4999 36.6894C25.1885 36.6894 24.9331 36.4355 24.9331 36.1248L24.9331 14.6759C24.9331 14.3653 25.1885 14.1113 25.4999 14.1113Z" fill="#EAB665"/>
<path id="Vector_3" d="M25.0983 14.2766C24.8777 14.4963 24.8777 14.855 25.0983 15.0747L31.7329 21.6833C31.9535 21.903 32.3136 21.903 32.5342 21.6833C32.7547 21.4636 32.7547 21.1049 32.5342 20.8852L25.8995 14.2766C25.6793 14.0569 25.3185 14.0569 25.0983 14.2766Z" fill="#EAB665"/>
<path id="Vector_4" d="M25.9007 14.2766C25.6802 14.0569 25.3201 14.0569 25.0995 14.2766L18.4649 20.8848C18.2443 21.1045 18.2443 21.4632 18.4649 21.6829C18.6854 21.9026 19.0455 21.9026 19.2661 21.6829L25.9007 15.0747C26.1213 14.855 26.1213 14.4959 25.9007 14.2766Z" fill="#EAB665"/>
</g>
</svg>
